<svg width="104" height="104" viewBox="0 0 104 104" fill="none" xmlns="http://www.w3.org/2000/svg">
<g filter="url(#filter0_d_2_30)">
<circle cx="52" cy="48" r="13" fill="#FEFEFE"/>
</g>
<path d="M53.1916 44.5333C54.1489 44.5333 54.925 43.7573 54.925 42.8C54.925 41.8427 54.1489 41.0667 53.1916 41.0667C52.2344 41.0667 51.4583 41.8427 51.4583 42.8C51.4583 43.7573 52.2344 44.5333 53.1916 44.5333Z" fill="#2C2C2C"/>
<path d="M54.964 51.5663C54.9161 51.5341 54.8623 51.5117 54.8057 51.5006C54.7491 51.4895 54.6908 51.4898 54.6343 51.5015C54.5778 51.5132 54.5242 51.5361 54.4766 51.5688C54.4291 51.6015 54.3885 51.6434 54.3574 51.692C53.9385 52.3123 53.4253 52.8635 52.8364 53.3256C52.6934 53.434 52.1604 53.8456 51.935 53.759C51.779 53.7113 51.87 53.4036 51.9004 53.2736L52.13 52.5933C52.2254 52.316 53.885 47.3933 54.067 46.83C54.3357 46.0066 54.2187 45.1963 52.9924 45.3913C52.6587 45.4259 49.2744 45.8636 49.2137 45.868C49.1568 45.8716 49.1012 45.8865 49.05 45.9117C48.9989 45.9369 48.9532 45.9719 48.9155 46.0148C48.8779 46.0576 48.8491 46.1075 48.8307 46.1615C48.8124 46.2155 48.8048 46.2725 48.8085 46.3295C48.8122 46.3864 48.8271 46.442 48.8523 46.4931C48.8775 46.5443 48.9125 46.59 48.9554 46.6276C48.9982 46.6652 49.0481 46.6941 49.1021 46.7124C49.156 46.7308 49.2131 46.7383 49.27 46.7346C49.27 46.7346 50.57 46.5656 50.713 46.5526C50.7863 46.5455 50.86 46.5597 50.9254 46.5935C50.9907 46.6273 51.0449 46.6793 51.0814 46.7433C51.1599 46.986 51.1491 47.2488 51.051 47.4843C50.9384 47.9176 49.1574 52.9356 49.101 53.226C49.0406 53.4689 49.0574 53.7247 49.149 53.9576C49.2407 54.1906 49.4026 54.3893 49.6124 54.526C50.0061 54.7883 50.4748 54.9147 50.947 54.8856C51.4062 54.88 51.8603 54.7889 52.286 54.617C53.365 54.1836 54.4917 53.031 55.0854 52.1253C55.1365 52.0333 55.1524 51.9258 55.13 51.8229C55.1077 51.7201 55.0487 51.6288 54.964 51.5663Z" fill="#2C2C2C"/>
<defs>
<filter id="filter0_d_2_30" x="0" y="0" width="104" height="104" filterUnits="userSpaceOnUse" color-interpolation-filters="sRGB">
<feFlood flood-opacity="0" result="BackgroundImageFix"/>
<feColorMatrix in="SourceAlpha" type="matrix" values="0 0 0 0 0 0 0 0 0 0 0 0 0 0 0 0 0 0 127 0" result="hardAlpha"/>
<feMorphology radius="9" operator="dilate" in="SourceAlpha" result="effect1_dropShadow_2_30"/>
<feOffset dy="4"/>
<feGaussianBlur stdDeviation="15"/>
<feColorMatrix type="matrix" values="0 0 0 0 0.996078 0 0 0 0 0.996078 0 0 0 0 0.996078 0 0 0 0.24 0"/>
<feBlend mode="normal" in2="BackgroundImageFix" result="effect1_dropShadow_2_30"/>
<feBlend mode="normal" in="SourceGraphic" in2="effect1_dropShadow_2_30" result="shape"/>
</filter>
</defs>
</svg>
