<svg width="24" height="24" viewBox="0 0 24 24" fill="none" xmlns="http://www.w3.org/2000/svg">
<path d="M23.1837 7.38126C23.1711 6.43454 22.9939 5.49723 22.66 4.61126C22.3704 3.86395 21.9282 3.18526 21.3615 2.61855C20.7948 2.05184 20.1161 1.60957 19.3687 1.32001C18.4942 0.991704 17.5702 0.814184 16.6362 0.795007C15.4337 0.741257 15.0525 0.726257 12 0.726257C8.9475 0.726257 8.55625 0.726257 7.3625 0.795007C6.42895 0.814325 5.50543 0.991842 4.63125 1.32001C3.88382 1.60937 3.20502 2.05156 2.63829 2.6183C2.07155 3.18503 1.62936 3.86383 1.34 4.61126C1.01104 5.48517 0.8339 6.4089 0.816246 7.34251C0.762496 8.54626 0.746246 8.92751 0.746246 11.98C0.746246 15.0325 0.746246 15.4225 0.816246 16.6175C0.834996 17.5525 1.01125 18.475 1.34 19.3513C1.62984 20.0985 2.07237 20.777 2.63929 21.3435C3.20622 21.91 3.88508 22.352 4.6325 22.6413C5.50429 22.9828 6.42796 23.173 7.36375 23.2038C8.5675 23.2575 8.94875 23.2738 12.0012 23.2738C15.0537 23.2738 15.445 23.2738 16.6387 23.2038C17.5727 23.1854 18.4967 23.0083 19.3712 22.68C20.1184 22.3901 20.7969 21.9477 21.3635 21.3811C21.9302 20.8144 22.3726 20.1359 22.6625 19.3888C22.9912 18.5138 23.1675 17.5913 23.1862 16.655C23.24 15.4525 23.2562 15.0713 23.2562 12.0175C23.2537 8.96501 23.2537 8.57751 23.1837 7.38126ZM11.9925 17.7525C8.8 17.7525 6.21375 15.1663 6.21375 11.9738C6.21375 8.78126 8.8 6.19501 11.9925 6.19501C13.5251 6.19501 14.995 6.80384 16.0787 7.88756C17.1624 8.97129 17.7712 10.4411 17.7712 11.9738C17.7712 13.5064 17.1624 14.9762 16.0787 16.0599C14.995 17.1437 13.5251 17.7525 11.9925 17.7525ZM18.0012 7.32876C17.255 7.32876 16.6537 6.72626 16.6537 5.98126C16.6537 5.80438 16.6886 5.62924 16.7563 5.46583C16.824 5.30242 16.9232 5.15394 17.0482 5.02887C17.1733 4.9038 17.3218 4.80459 17.4852 4.73691C17.6486 4.66922 17.8237 4.63438 18.0006 4.63438C18.1775 4.63438 18.3526 4.66922 18.516 4.73691C18.6795 4.80459 18.8279 4.9038 18.953 5.02887C19.0781 5.15394 19.1773 5.30242 19.245 5.46583C19.3127 5.62924 19.3475 5.80438 19.3475 5.98126C19.3475 6.72626 18.745 7.32876 18.0012 7.32876Z" fill="#FEFEFE"/>
</svg>
